<svg width="32" height="32" viewBox="0 0 32 32" fill="none" xmlns="http://www.w3.org/2000/svg">
<path d="M23.2656 23.3125C22.9844 23.5938 22.4688 23.5938 22.1875 23.3125L16 17.0781L9.76562 23.3125C9.48438 23.5938 8.96875 23.5938 8.6875 23.3125C8.40625 23.0312 8.40625 22.5156 8.6875 22.2344L14.9219 16L8.6875 9.8125C8.40625 9.53125 8.40625 9.01562 8.6875 8.73438C8.96875 8.45312 9.48438 8.45312 9.76562 8.73438L16 14.9688L22.1875 8.73438C22.4688 8.45312 22.9844 8.45312 23.2656 8.73438C23.5469 9.01562 23.5469 9.53125 23.2656 9.8125L17.0312 16L23.2656 22.2344C23.5469 22.5156 23.5469 23.0312 23.2656 23.3125Z" fill="#0076C7"/>
</svg>
